<svg id="Layer_1" data-name="Layer 1" xmlns="http://www.w3.org/2000/svg" viewBox="0 0 329.24 100.61"><defs><style>.cls-1,.cls-2{fill:#fff;stroke:#fff;stroke-miterlimit:10;}.cls-2{font-size:16.81px;stroke-width:0.37px;font-family:Calibri-Bold, Calibri;font-weight:700;}.cls-3{letter-spacing:-0.01em;}.cls-4{letter-spacing:0.01em;}</style></defs><title>DOUALAIR_white</title><path class="cls-1" d="M376.72,235.66H76.18c-1,0-1.93,0-2.89,0a2.74,2.74,0,0,1-2.22-1c-2.23-2.33-4.49-4.64-6.74-7-.13-.14-.28-.25-.39-.39a1,1,0,0,1-.28-1c.17-.38.55-.36.9-.36H365a7,7,0,0,0,1.12,0c1.65-.27,2.7.63,3.65,1.78,1.81,2.18,4,4,5.92,6.08a1.19,1.19,0,0,0,1,.36Z" transform="translate(-47.98 -162.14)"/><path class="cls-1" d="M300.71,162.64c.08.25.21.47.49.5a8.18,8.18,0,0,1,3.07,1.44,7.91,7.91,0,0,1,3.21,3.51,12,12,0,0,1,1,7.66,10,10,0,0,1-2.73,5.5,9.68,9.68,0,0,1-5.11,2.88c-.51.09-1.05.21-.45.85a29.21,29.21,0,0,1,4.09,6.3c1.81,3.33,3.51,6.71,5.28,10.07.71,1.34.53,1.78-1,1.92a32.2,32.2,0,0,1-3.26,0,1.32,1.32,0,0,1-1.18-.77,21.86,21.86,0,0,1-2-4.08c-.45-1.36-1.43-2.37-2-3.66a50.77,50.77,0,0,0-3.77-7,5,5,0,0,0-4.53-2.44c-.84,0-1.2.39-1.14,1.21.32,3.91.09,7.84.13,11.75,0,1.21-.16,2.41,0,3.62a1.11,1.11,0,0,1-1.3,1.32c-1-.08-2-.1-3-.16s-1.25-.44-1.25-1.48c0-3.77,0-7.53,0-11.3V164.88c0-1.48,0-1.49,1.42-1.71.36-.06.67-.15.8-.53Zm-7.23,18.84A11.22,11.22,0,0,0,300.1,180a4.9,4.9,0,0,0,2.36-2.65,12,12,0,0,0,.35-6.22,7,7,0,0,0-4.88-4.37,19.86,19.86,0,0,0-5.11-.06c-2,.25-2,.21-2,2.2,0,3.8,0,7.59,0,11.39,0,.89.3,1.27,1.19,1.2C292.49,181.45,293,181.48,293.48,181.48Z" transform="translate(-47.98 -162.14)"/><path class="cls-1" d="M104.81,162.64a.72.72,0,0,0,.62.5,12.27,12.27,0,0,1,6.3,3,13.77,13.77,0,0,1,4.31,5.83,29.83,29.83,0,0,1,1.73,12.81,38.35,38.35,0,0,1-.91,5.87,18,18,0,0,1-7.12,9.7,23.21,23.21,0,0,1-5.59,2.19c-3.91,1.1-7.87.72-11.82.81-1.37,0-1.7-.36-1.7-1.73V164.91c0-1.43.26-1.67,1.68-1.73.6,0,1.28.13,1.67-.54Zm-9.89,23.73v12.5c0,.57,0,1.1.8,1.1,3.53,0,7,.28,10.25-1.83a12.86,12.86,0,0,0,5.21-7.32,21.56,21.56,0,0,0,.83-5.11c.28-4.28.24-8.47-1.5-12.52S105.33,167,101.1,166a12.7,12.7,0,0,0-4.64,0c-1.26.18-1.53.45-1.53,1.76,0,2.41.09,4.81,0,7.22C94.85,178.78,94.92,182.58,94.92,186.37Z" transform="translate(-47.98 -162.14)"/><path class="cls-1" d="M142,162.64a.62.62,0,0,0,.48.5c2.62.54,4.46,2.34,6.07,4.22a16.55,16.55,0,0,1,2.65,5.41c1.51,4.42,1.43,9,1.19,13.55a22,22,0,0,1-3.56,11.51,13.49,13.49,0,0,1-7.29,5.59,15.41,15.41,0,0,1-6.56.4,12.47,12.47,0,0,1-7.89-4.34,19.07,19.07,0,0,1-3.85-7.74,39.19,39.19,0,0,1-.78-14,24.51,24.51,0,0,1,2.49-8.43,12.23,12.23,0,0,1,5.37-5.35,3.76,3.76,0,0,1,2-.8c.28,0,.42-.24.49-.49Zm5,19c-.21-2.4-.25-6.34-1.51-10.14a10.18,10.18,0,0,0-2.94-4.77,8,8,0,0,0-6.7-1.5,7.08,7.08,0,0,0-5.31,3.36,18.27,18.27,0,0,0-2.18,6.36,45.63,45.63,0,0,0-.67,8.07,54.81,54.81,0,0,0,.54,6.87,20.18,20.18,0,0,0,1.68,6.41c1.29,2.65,3,4.74,6.19,5.21a7.41,7.41,0,0,0,7.11-2.7,13.13,13.13,0,0,0,2.84-6.21A48.43,48.43,0,0,0,147,181.6Z" transform="translate(-47.98 -162.14)"/><path class="cls-1" d="M163.64,162.64c0,9.43,0,18.86,0,28.29a12.63,12.63,0,0,0,1,5.17,5.88,5.88,0,0,0,5.06,3.62,9.3,9.3,0,0,0,8.88-3.61,7.15,7.15,0,0,0,1.47-4.34q0-14.57,0-29.13h3.74c0,8.83.05,17.67-.05,26.5a20.88,20.88,0,0,1-1.4,8.3,9.47,9.47,0,0,1-5,5.05,15.19,15.19,0,0,1-6.13,1.34c-3.24,0-6.48-.34-9.22-2.34a8.1,8.1,0,0,1-2.84-4.17,26.78,26.78,0,0,1-1-8.46c0-8.74,0-17.48,0-26.22Z" transform="translate(-47.98 -162.14)"/><path class="cls-1" d="M257.2,162.64c.17.84.66,1.55.85,2.42.49,2.26,1.26,4.45,1.89,6.68.37,1.31.65,2.65,1,4s.83,2.53,1.13,3.83c.55,2.36,1.33,4.65,1.91,7a44.21,44.21,0,0,0,1.25,4.36c.37,1,.53,2.1.86,3.13.83,2.6,1.48,5.25,2.2,7.88.24.88.05,1.21-.87,1.35a16,16,0,0,1-3.72,0,1.61,1.61,0,0,1-1.5-1.52,27.28,27.28,0,0,0-1.28-4.93c-.41-1.07-.44-2.24-.87-3.32-.26-.65-.53-1-1.24-1-1.95.05-3.9.11-5.85.11a34,34,0,0,0-4.84,0,1.12,1.12,0,0,0-1.11,1c-.68,2.83-1.61,5.6-2.19,8.46a1.33,1.33,0,0,1-.94,1.06,2.89,2.89,0,0,1-.72.16c-2.26.19-2.41-.17-1.86-2.36s1.31-4.25,1.93-6.38,1.21-4.1,1.94-6.12,1.09-3.94,1.79-5.85,1.1-3.61,1.71-5.39c.43-1.26.79-2.55,1.19-3.82s.82-2.59,1.26-3.88c.37-1.05.57-2.15.95-3.2a26.5,26.5,0,0,1,1.55-3.68ZM254.62,189c1.2,0,2.13,0,3.06,0s1.11-.33.94-1.16c-.56-2.7-1.46-5.31-2-8s-1.66-5.57-2.06-8.47c0-.22-.06-.45-.33-.49s-.41.16-.49.37-.18.59-.27.88c-.39,1.24-.64,2.53-1.05,3.75-1,3-1.77,6.07-2.75,9.08a18.67,18.67,0,0,0-.93,3.12c-.1.75.21,1,.85.93C251.36,188.7,253.12,189.13,254.62,189Z" transform="translate(-47.98 -162.14)"/><path class="cls-1" d="M203.6,162.64c.67,1.7.77,3.57,1.54,5.26a15.38,15.38,0,0,1,.85,2.95c.66,2.68,1.57,5.29,2.23,8,.54,2.16,1.21,4.28,1.76,6.44s1.3,4.47,1.86,6.72,1.44,4.61,1.95,7c.22,1,.56,2,.84,3,.2.7,0,1-.63,1.18a11.64,11.64,0,0,1-4.63-.09.68.68,0,0,1-.51-.61c-.08-.67-.55-1.24-.62-1.84-.14-1.29-.82-2.42-.91-3.7s-.87-2.45-1-3.77c-.05-.47-.52-.6-.94-.6-3.61,0-7.22,0-10.83,0a1.31,1.31,0,0,0-1.41,1.32,27.93,27.93,0,0,1-1.08,4.51c-.31,1.19-.59,2.41-1,3.59-.27.84-.56,1.44-1.6,1.21a2.93,2.93,0,0,0-.93,0c-1.2.13-1.49-.23-1.25-1.44s.77-2.28,1.09-3.46c.45-1.66,1.07-3.28,1.49-5s1.17-3.6,1.75-5.4c.46-1.45.87-2.91,1.29-4.36.5-1.75,1.15-3.47,1.71-5.21,1-3.13,2-6.25,2.84-9.43a25.23,25.23,0,0,1,1.09-3,3.24,3.24,0,0,0,.34-1.63c-.12-.77.79-1,.76-1.73ZM199.91,189h4.2c.71,0,1-.26.88-1-.12-.58-.21-1.15-.38-1.72-.65-2.22-1.39-4.44-1.82-6.71-.51-2.65-1.45-5.19-1.89-7.85a3.66,3.66,0,0,0-.25-.7c-.06-.15-.17-.3-.34-.25a.36.36,0,0,0-.21.27c0,1.1-.81,2-.86,3.13a4.74,4.74,0,0,1-.55,1.86,13.06,13.06,0,0,0-.88,2.53c-.78,3.16-1.85,6.24-2.74,9.36-.25.88-.17,1.08.74,1.09C197.18,189,198.54,189,199.91,189Z" transform="translate(-47.98 -162.14)"/><path class="cls-1" d="M224.33,162.64q0,17.58,0,35.17c0,1.16.09,1.24,1.31,1.25h10.82c1.73,0,1.88.16,1.86,1.85,0,2.43,0,2.43-2.45,2.42H221.24c-1.77,0-2-.17-2-1.9q0-18.37,0-36.76c0-.67.12-1.35.18-2Z" transform="translate(-47.98 -162.14)"/><path class="cls-1" d="M278.12,162.64a85.08,85.08,0,0,1,.17,9.31q0,14.7,0,29.38c0,1.56-.45,2-2,2a15,15,0,0,0-2.6-.09c-.61.1-.81-.38-.82-.9,0-.71,0-1.43,0-2.14q0-17.72,0-35.44a7.24,7.24,0,0,1,.19-2.13Z" transform="translate(-47.98 -162.14)"/><path class="cls-1" d="M208,223H59.37c-1.19,0-1.41-.22-1.43-1.32,0-1.35.31-1.81,1.41-1.84,1.49,0,3,0,4.48,0h292a8.69,8.69,0,0,1,1,0c1.07.15,1.28.56,1.25,2,0,1-.61,1.16-1.42,1.16H208Z" transform="translate(-47.98 -162.14)"/><path class="cls-1" d="M345.78,217H341.5c-93.67-.38-187.34-.06-281-.15-2.49,0-5,.22-7.46.15-1.24,0-2.49-.11-3.73-.16-.61,0-.93-.27-.81-.94a8.8,8.8,0,0,0,.1-1,1.06,1.06,0,0,1,1-1,9.85,9.85,0,0,1,3.25-.07,15.14,15.14,0,0,0,2.69-.1c1.71,0,3.42.16,5.13.15,91.58-.35,183.17,0,274.76-.16,2.95,0,5.9.27,8.86.18a11.19,11.19,0,0,1,3.06,0,1.51,1.51,0,0,1,1.31,1.72c-.1,1.1-.31,1.29-1.49,1.3h-1.4Z" transform="translate(-47.98 -162.14)"/><text class="cls-2" transform="translate(40.4 95.28)">SE<tspan class="cls-3" x="16.14" y="0">R</tspan><tspan x="25.4" y="0">VIR LE CIE</tspan><tspan class="cls-4" x="93.76" y="0">L</tspan><tspan x="101.12" y="0">, LA TERRE ET LA MER</tspan></text></svg>